<svg width="16" height="16" viewBox="0 0 16 16" fill="none" xmlns="http://www.w3.org/2000/svg">
<path d="M1 13.4088V6.30415C1 5.77211 1.25994 5.27527 1.69269 4.98015L7.13713 1.26725C7.65964 0.910917 8.34036 0.910917 8.86287 1.26725L14.3073 4.98015C14.7401 5.27527 15 5.77211 15 6.30415V13.4088M1 13.4088C1 14.2876 1.69645 15 2.55556 15H13.4444C14.3036 15 15 14.2876 15 13.4088M1 13.4088L6.25 9.82846M15 13.4088L9.75 9.82846M1 6.24816L6.25 9.82846M15 6.24816L9.75 9.82846M9.75 9.82846L8.86287 10.4334C8.34036 10.7898 7.65964 10.7898 7.13713 10.4334L6.25 9.82846" stroke="#6366F1" stroke-width="2" stroke-linecap="round" stroke-linejoin="round"/>
</svg>
